<?xml version="1.0" encoding="UTF-8"?>
<!DOCTYPE svg PUBLIC "-//W3C//DTD SVG 1.1//EN" "http://www.w3.org/Graphics/SVG/1.1/DTD/svg11.dtd">
<svg xmlns="http://www.w3.org/2000/svg" version="1.1" width="258px" height="300px" style="shape-rendering:geometricPrecision; text-rendering:geometricPrecision; image-rendering:optimizeQuality; fill-rule:evenodd; clip-rule:evenodd" xmlns:xlink="http://www.w3.org/1999/xlink">
<g><path style="opacity:0.938" fill="#000000" d="M 108.5,-0.5 C 123.167,-0.5 137.833,-0.5 152.5,-0.5C 205.963,7.96373 240.963,37.9637 257.5,89.5C 257.5,91.5 257.5,93.5 257.5,95.5C 248.92,97.9803 240.253,99.8136 231.5,101C 216.259,51.6366 182.592,26.8033 130.5,26.5C 71.777,28.388 37.9436,58.388 29,116.5C 24.4694,146.203 26.1361,175.536 34,204.5C 49.6826,250.125 81.8493,272.791 130.5,272.5C 154.126,273.1 175.459,266.6 194.5,253C 215.767,235.534 222.267,213.701 214,187.5C 210.107,178.94 204.107,172.273 196,167.5C 187.371,215.134 159.204,234.968 111.5,227C 77.8242,215.482 65.9908,192.648 76,158.5C 85.0982,141.419 99.2649,131.253 118.5,128C 126.805,126.924 135.139,126.091 143.5,125.5C 151.836,126.423 160.17,126.923 168.5,127C 164.101,106.939 151.601,96.7727 131,96.5C 116.84,96.4961 105.673,102.163 97.5,113.5C 89.863,108.522 82.5297,103.188 75.5,97.5C 86.1472,80.6653 101.481,71.1653 121.5,69C 168.118,66.6101 193.285,88.7768 197,135.5C 240.931,158.26 254.931,193.26 239,240.5C 220.558,274.645 192.058,294.312 153.5,299.5C 138.5,299.5 123.5,299.5 108.5,299.5C 51.4687,289.64 16.6354,256.307 4,199.5C 2.37189,191.381 0.871889,183.381 -0.5,175.5C -0.5,158.167 -0.5,140.833 -0.5,123.5C 2.36531,92.402 13.1986,64.402 32,39.5C 52.6057,16.7807 78.1057,3.44736 108.5,-0.5 Z M 129.5,154.5 C 142.929,153.991 156.263,154.824 169.5,157C 168.692,169.759 164.526,181.259 157,191.5C 141.57,202.733 125.403,203.899 108.5,195C 96.5906,184.02 96.5906,173.02 108.5,162C 115.128,158.181 122.128,155.681 129.5,154.5 Z"/></g>
</svg>
