<svg width="154" height="193" viewBox="0 0 154 193" fill="none" xmlns="http://www.w3.org/2000/svg">
<path d="M47.9027 44.7526C48.3388 40.9038 59.5227 41.6449 62.3 41.6949C69.024 41.816 75.6025 43.3573 81.8558 45.3641C88.5712 47.5193 95.8083 52.5016 101.412 56.3718C108.464 61.2431 114.511 66.6419 119.62 73.1551C124.09 78.8537 128.185 82.0449 127.55 89.3269C127.285 92.3642 126.309 95.2066 126.164 98.3301C125.956 102.829 125.087 107.131 124.278 111.546C123.003 118.499 117.654 123.962 113.345 129.756C108.83 135.829 101.171 141.215 94.7133 145.656C89.9886 148.906 84.019 152.383 77.6983 152.383C68.4109 152.383 62.8061 146.235 56.6027 141.138C52.1341 137.466 48.6273 133.351 45.8239 128.533C43.1303 123.904 38.7946 119.306 38.2403 113.924C37.1323 103.168 39.7587 95.0472 50.4049 88.7833C59.7533 83.283 72.2745 83.1718 82.9722 84.5705C89.1622 85.3798 95.3564 86.863 101.643 87.6282C107.501 88.3414 113.379 91.1321 118.735 93.2C124.867 95.5679 128.215 98.0049 132.478 102.237C134.832 104.575 137.898 106.175 140.061 108.692C144.451 113.799 147.285 119.192 149.454 125.34C151.376 130.786 153.084 137.911 151.148 143.55C149.188 149.259 145.172 154.744 142.679 160.333C139.983 166.376 137.478 172.811 132.593 177.796C128.594 181.876 123.271 183.546 117.888 185.746C100.916 192.681 82.6116 192.659 65.3027 186.222C58.0485 183.524 51.1652 180.132 43.8992 177.456C37.3223 175.034 29.8164 172.516 24.4204 168.283C15.4513 161.247 2.89651 154.378 2.24693 142.769C1.69339 132.876 1.90325 122.51 4.63366 112.871C7.31924 103.39 11.1294 94.1824 12.9487 84.5026C14.4504 76.5125 13.9825 68.4356 16.7213 60.6526C19.9862 51.3741 23.7215 42.3824 27.423 33.2353C30.9234 24.5854 36.2723 18.7988 43.5912 12.4769C46.3716 10.0753 49.3813 8.67104 53.1381 7.78849C65.8868 4.79352 78.8303 3.2196 91.9802 2.55644C97.6472 2.27064 104.384 0.928268 109.496 3.84746C114.41 6.65394 119.5 9.4491 124.355 12.341C132.742 17.3374 142.417 24.9385 144.912 33.7449" stroke="black" stroke-width="3" stroke-linecap="round"/>
</svg>
